<svg width="316" height="342" viewBox="0 0 316 342" fill="none" xmlns="http://www.w3.org/2000/svg">
<path d="M128.4 171.04H129.936V172H109.104V171.136H110.544C111.632 171.136 112.56 170.72 113.328 169.888C114.096 168.992 114.416 168.032 114.288 167.008L109.968 118.72L89.808 163.552C88.016 167.456 86.928 170.72 86.544 173.344H85.584L61.008 120.064L56.88 167.008C56.752 168.032 57.072 168.992 57.84 169.888C58.608 170.72 59.504 171.136 60.528 171.136H62.064V172H43.44V171.04H44.976C46.768 171.04 48.304 170.496 49.584 169.408C50.928 168.32 51.728 166.848 51.984 164.992L59.184 103.456H60.144L86.928 161.344L113.136 103.456H114L121.392 164.992C121.712 167.552 122.992 169.344 125.232 170.368C126.192 170.816 127.248 171.04 128.4 171.04ZM211.984 171.04H213.52V172H192.688V171.136H194.128C195.216 171.136 196.144 170.72 196.912 169.888C197.68 168.992 198 168.032 197.872 167.008L193.552 118.72L173.392 163.552C171.6 167.456 170.512 170.72 170.128 173.344H169.168L144.592 120.064L140.464 167.008C140.336 168.032 140.656 168.992 141.424 169.888C142.192 170.72 143.088 171.136 144.112 171.136H145.648V172H127.024V171.04H128.56C130.352 171.04 131.888 170.496 133.168 169.408C134.512 168.32 135.312 166.848 135.568 164.992L142.768 103.456H143.728L170.512 161.344L196.72 103.456H197.584L204.976 164.992C205.296 167.552 206.576 169.344 208.816 170.368C209.776 170.816 210.832 171.04 211.984 171.04ZM234.703 171.04H235.951V172H214.927V171.04H216.175C217.839 171.04 219.247 170.464 220.399 169.312C221.615 168.096 222.255 166.656 222.319 164.992V111.712C222.255 110.048 221.615 108.64 220.399 107.488C219.247 106.336 217.839 105.76 216.175 105.76H214.927V104.8H235.951V105.76H234.703C233.039 105.76 231.599 106.336 230.383 107.488C229.231 108.64 228.623 110.048 228.559 111.712V164.992C228.559 166.656 229.167 168.096 230.383 169.312C231.599 170.464 233.039 171.04 234.703 171.04ZM273.295 172H269.167C262.639 172 257.839 170.176 254.767 166.528L231.631 138.592L254.287 110.176C254.799 109.536 255.055 108.96 255.055 108.448C255.055 107.936 254.959 107.488 254.767 107.104C254.255 106.144 253.327 105.664 251.983 105.664H251.023V104.8H271.279V105.664H270.895C266.671 105.664 263.215 107.168 260.527 110.176L237.967 136.288L264.175 167.104C266.735 169.664 269.775 170.976 273.295 171.04V172Z" fill="white"/>
<path d="M57.972 196.748C57.972 197.804 57.756 198.788 57.324 199.7C56.532 201.404 55.14 202.592 53.148 203.264C52.452 203.504 51.852 203.624 51.348 203.624C49.86 203.624 48.576 203.348 47.496 202.796V202.436C49.248 202.82 50.868 202.628 52.356 201.86C53.676 201.188 54.576 200.084 55.056 198.548C55.2 198.068 55.272 197.612 55.272 197.18C55.272 196.748 55.272 196.484 55.272 196.388C55.224 194.708 54.78 193.376 53.94 192.392C53.1 191.384 51.924 190.88 50.412 190.88H46.272V212.372C46.296 212.996 46.524 213.536 46.956 213.992C47.412 214.424 47.952 214.64 48.576 214.64H49.044V215H41.16V214.64H41.628C42.252 214.64 42.78 214.424 43.212 213.992C43.668 213.536 43.908 212.996 43.932 212.372V192.248C43.86 191.648 43.608 191.156 43.176 190.772C42.744 190.364 42.228 190.16 41.628 190.16H41.196L41.16 189.8H50.556C52.86 189.8 54.672 190.424 55.992 191.672C57.312 192.896 57.972 194.588 57.972 196.748ZM68.9976 190.916H66.6936V212.372C66.6936 212.996 66.9096 213.536 67.3416 213.992C67.7976 214.424 68.3496 214.64 68.9976 214.64H69.4296L69.4656 215H61.5816V214.64H62.0496C62.6736 214.64 63.2016 214.424 63.6336 213.992C64.0896 213.56 64.3296 213.032 64.3536 212.408V192.428C64.3296 191.804 64.0896 191.276 63.6336 190.844C63.2016 190.388 62.6736 190.16 62.0496 190.16H61.5816V189.8H71.3016C73.4856 189.8 75.2016 190.412 76.4496 191.636C77.6976 192.836 78.3216 194.408 78.3216 196.352C78.3216 198.272 77.7216 199.94 76.5216 201.356C75.3456 202.748 73.9056 203.444 72.2016 203.444C72.5616 203.612 72.9816 203.948 73.4616 204.452C73.9656 204.932 74.4096 205.436 74.7936 205.964C76.8576 208.916 78.2016 210.74 78.8256 211.436C79.4496 212.108 79.8936 212.576 80.1576 212.84C80.4216 213.08 80.7096 213.32 81.0216 213.56C81.3336 213.8 81.6456 213.992 81.9576 214.136C82.6536 214.472 83.3976 214.64 84.1896 214.64V215H82.2096C81.1776 215 80.2176 214.82 79.3296 214.46C78.4416 214.076 77.7696 213.692 77.3136 213.308C76.8816 212.9 76.4976 212.516 76.1616 212.156C75.8496 211.772 74.9616 210.524 73.4976 208.412C72.0336 206.3 71.1816 205.1 70.9416 204.812C70.7016 204.5 70.4496 204.2 70.1856 203.912C69.4176 203.096 68.6496 202.688 67.8816 202.688V202.328C68.0736 202.352 68.3256 202.364 68.6376 202.364C68.9496 202.364 69.3336 202.352 69.7896 202.328C72.7656 202.256 74.6376 201.008 75.4056 198.584C75.5496 198.104 75.6216 197.66 75.6216 197.252C75.6216 196.82 75.6216 196.544 75.6216 196.424C75.5736 194.816 75.1536 193.52 74.3616 192.536C73.5696 191.552 72.5016 191.024 71.1576 190.952C70.5816 190.928 69.8616 190.916 68.9976 190.916ZM88.0717 192.932C90.4717 190.508 93.5917 189.296 97.4317 189.296C101.272 189.296 104.392 190.508 106.792 192.932C109.192 195.332 110.392 198.488 110.392 202.4C110.392 206.312 109.192 209.48 106.792 211.904C104.392 214.304 101.272 215.504 97.4317 215.504C93.5917 215.504 90.4717 214.304 88.0717 211.904C85.6957 209.48 84.5077 206.312 84.5077 202.4C84.5077 198.488 85.6957 195.332 88.0717 192.932ZM90.0517 211.112C91.9237 213.32 94.3837 214.424 97.4317 214.424C100.504 214.424 102.964 213.32 104.812 211.112C106.684 208.904 107.62 206 107.62 202.4C107.62 200.024 107.2 197.924 106.36 196.1C105.52 194.276 104.32 192.872 102.76 191.888C101.224 190.88 99.4477 190.376 97.4317 190.376C94.3837 190.376 91.9237 191.48 90.0517 193.688C88.2037 195.896 87.2797 198.8 87.2797 202.4C87.2797 206 88.2037 208.904 90.0517 211.112ZM134.642 214.64H135.146V215H126.362V214.64H126.794C127.322 214.64 127.73 214.4 128.018 213.92C128.186 213.656 128.27 213.404 128.27 213.164C128.27 212.924 128.21 212.684 128.09 212.444L122.546 203.696L117.002 212.408C116.858 212.648 116.786 212.9 116.786 213.164C116.786 213.404 116.87 213.644 117.038 213.884C117.35 214.388 117.758 214.64 118.262 214.64H118.73V215H110.558V214.64H111.062C111.782 214.64 112.466 214.436 113.114 214.028C113.762 213.62 114.302 213.116 114.734 212.516L121.61 202.256L115.31 192.284C114.734 191.444 114.002 190.832 113.114 190.448C112.634 190.256 112.154 190.16 111.674 190.16H111.17V189.8H119.882V190.16H119.45C118.946 190.16 118.538 190.4 118.226 190.88C118.058 191.144 117.974 191.396 117.974 191.636C117.974 191.876 118.034 192.116 118.154 192.356L123.122 200.132L128.018 192.392C128.162 192.152 128.234 191.912 128.234 191.672C128.234 191.408 128.162 191.156 128.018 190.916C127.73 190.412 127.322 190.16 126.794 190.16H126.362V189.8H134.462V190.16H133.958C133.238 190.16 132.554 190.364 131.906 190.772C131.282 191.18 130.754 191.684 130.322 192.284L124.022 201.572L131.006 212.552C131.582 213.368 132.314 213.968 133.202 214.352C133.682 214.544 134.162 214.64 134.642 214.64ZM137.166 214.64C137.79 214.64 138.318 214.424 138.75 213.992C139.206 213.536 139.446 212.996 139.47 212.372V192.392C139.446 191.768 139.206 191.24 138.75 190.808C138.318 190.376 137.79 190.16 137.166 190.16H136.698V189.8H144.582V190.16H144.114C143.49 190.16 142.95 190.376 142.494 190.808C142.062 191.24 141.834 191.768 141.81 192.392V212.372C141.81 212.996 142.038 213.536 142.494 213.992C142.95 214.424 143.49 214.64 144.114 214.64H144.582V215H136.698V214.64H137.166ZM166.286 215H157.502L157.538 214.64H157.97C158.594 214.64 159.122 214.424 159.554 213.992C160.01 213.56 160.25 213.032 160.274 212.408V192.392C160.274 191.768 160.046 191.24 159.59 190.808C159.134 190.376 158.594 190.16 157.97 190.16H157.538L157.502 189.8H164.666C167.138 189.8 169.058 190.352 170.426 191.456C171.794 192.536 172.478 193.988 172.478 195.812C172.478 197.252 172.094 198.452 171.326 199.412C170.558 200.348 169.622 200.972 168.518 201.284C170.414 201.572 171.914 202.352 173.018 203.624C174.122 204.896 174.674 206.504 174.674 208.448C174.674 210.368 173.93 211.94 172.442 213.164C170.978 214.388 168.926 215 166.286 215ZM162.614 213.704H166.142C166.166 213.704 166.19 213.704 166.214 213.704C168.038 213.704 169.454 213.212 170.462 212.228C171.47 211.22 171.974 209.804 171.974 207.98C171.974 206.948 171.794 206.048 171.434 205.28C171.098 204.488 170.666 203.864 170.138 203.408C168.746 202.256 166.658 201.68 163.874 201.68C163.874 201.68 163.862 201.68 163.838 201.68V201.356C163.862 201.356 163.97 201.356 164.162 201.356C164.378 201.356 164.678 201.332 165.062 201.284C165.446 201.236 165.878 201.152 166.358 201.032C166.838 200.912 167.27 200.72 167.654 200.456C168.038 200.192 168.398 199.88 168.734 199.52C169.43 198.728 169.778 197.552 169.778 195.992C169.778 194.408 169.322 193.172 168.41 192.284C167.522 191.396 166.226 190.952 164.522 190.952H162.614V213.704ZM202.032 214.64H202.32V215H194.22V214.64H194.544C195.048 214.64 195.42 214.484 195.66 214.172C195.924 213.836 196.056 213.524 196.056 213.236C196.056 212.948 196.008 212.66 195.912 212.372L193.608 206.252H183.888L181.476 212.408C181.38 212.696 181.332 212.984 181.332 213.272C181.332 213.536 181.452 213.836 181.692 214.172C181.956 214.484 182.34 214.64 182.844 214.64H183.168V215H175.932V214.64H176.256C176.856 214.64 177.444 214.448 178.02 214.064C178.596 213.68 179.064 213.116 179.424 212.372L187.56 193.004C188.448 191.06 188.892 189.824 188.892 189.296H189.216L198.864 212.372C199.2 213.116 199.656 213.68 200.232 214.064C200.808 214.448 201.408 214.64 202.032 214.64ZM184.32 205.172H193.176L188.856 193.616L184.32 205.172ZM229.713 190.16C229.113 190.16 228.597 190.376 228.165 190.808C227.733 191.216 227.505 191.72 227.481 192.32V210.896C227.481 212.288 227.565 213.608 227.733 214.856L227.805 215.504H227.481L207.861 194.552V212.48C207.885 213.32 208.257 213.944 208.977 214.352C209.313 214.544 209.673 214.64 210.057 214.64H210.741V215H203.325V214.64H204.009C204.609 214.64 205.125 214.436 205.557 214.028C205.989 213.596 206.205 213.068 206.205 212.444V193.76C206.205 192.296 206.121 190.988 205.953 189.836L205.881 189.26H206.241L225.861 210.212V192.356C225.837 191.732 225.609 191.216 225.177 190.808C224.745 190.376 224.229 190.16 223.629 190.16H222.945V189.8H230.361V190.16H229.713ZM241.019 214.64H241.487V215H233.603V214.64H234.071C234.695 214.64 235.223 214.424 235.655 213.992C236.111 213.536 236.351 212.996 236.375 212.372V192.392C236.351 191.768 236.111 191.24 235.655 190.808C235.223 190.376 234.695 190.16 234.071 190.16H233.603V189.8H241.487V190.16H241.019C240.395 190.16 239.855 190.376 239.399 190.808C238.967 191.24 238.739 191.768 238.715 192.392V212.372C238.715 212.996 238.943 213.536 239.399 213.992C239.855 214.424 240.395 214.64 241.019 214.64ZM255.491 215H253.943C251.495 215 249.695 214.316 248.543 212.948L239.867 202.472L248.363 191.816C248.555 191.576 248.651 191.36 248.651 191.168C248.651 190.976 248.615 190.808 248.543 190.664C248.351 190.304 248.003 190.124 247.499 190.124H247.139V189.8H254.735V190.124H254.591C253.007 190.124 251.711 190.688 250.703 191.816L242.243 201.608L252.071 213.164C253.031 214.124 254.171 214.616 255.491 214.64V215ZM265.939 213.524C265.867 213.188 265.831 212.54 265.831 211.58C265.831 210.62 266.011 209.6 266.371 208.52H266.695C266.671 208.784 266.659 209.048 266.659 209.312C266.659 210.776 267.103 212 267.991 212.984C268.879 213.944 270.055 214.424 271.519 214.424C273.031 214.424 274.267 213.968 275.227 213.056C276.211 212.144 276.703 211.004 276.703 209.636C276.703 208.244 276.235 207.116 275.299 206.252L268.387 199.844C267.091 198.644 266.443 197.192 266.443 195.488C266.443 193.784 267.007 192.332 268.135 191.132C269.287 189.908 270.835 189.296 272.779 189.296C273.691 189.296 274.723 189.416 275.875 189.656H277.279V194.084H276.955C276.955 192.956 276.559 192.056 275.767 191.384C274.999 190.712 274.003 190.376 272.779 190.376C271.555 190.376 270.523 190.784 269.683 191.6C268.867 192.416 268.459 193.436 268.459 194.66C268.459 195.884 268.939 196.94 269.899 197.828L276.991 204.38C278.191 205.484 278.791 206.996 278.791 208.916C278.791 210.836 278.179 212.42 276.955 213.668C275.731 214.892 274.099 215.504 272.059 215.504C271.003 215.504 269.875 215.336 268.675 215C267.499 214.688 266.587 214.196 265.939 213.524ZM283.277 214.64C283.901 214.64 284.429 214.424 284.861 213.992C285.317 213.536 285.557 212.996 285.581 212.372V192.392C285.557 191.768 285.317 191.24 284.861 190.808C284.429 190.376 283.901 190.16 283.277 190.16H282.809V189.8H290.693V190.16H290.225C289.601 190.16 289.061 190.376 288.605 190.808C288.173 191.24 287.945 191.768 287.921 192.392V212.372C287.921 212.996 288.149 213.536 288.605 213.992C289.061 214.424 289.601 214.64 290.225 214.64H290.693V215H282.809V214.64H283.277Z" fill="white"/>
<path d="M28 105.5V91.5L177 12L304.5 81V106" stroke="#54A8B0" stroke-width="4"/>
<path d="M28 105.5V91.5L177 12L304.5 81V106" stroke="white" stroke-width="4"/>
<path d="M7 105.5V81L134 11L283.5 92.5V106" stroke="#54A8B0" stroke-width="4"/>
<path d="M7 105.5V81L134 11L283.5 92.5V106" stroke="white" stroke-width="4"/>
<path d="M28 240.5V254.5L177 334L304.5 265V240" stroke="#54A8B0" stroke-width="4"/>
<path d="M28 240.5V254.5L177 334L304.5 265V240" stroke="white" stroke-width="4"/>
<path d="M7 240.5V265L134 335L283.5 253.5V240" stroke="#54A8B0" stroke-width="4"/>
<path d="M7 240.5V265L134 335L283.5 253.5V240" stroke="white" stroke-width="4"/>
</svg>
