<svg width="16" height="12" viewBox="0 0 16 12" fill="none" xmlns="http://www.w3.org/2000/svg">
<path d="M14.6667 0H1.33333C0.597222 0 0 0.575893 0 1.28571V10.7143C0 11.4241 0.597222 12 1.33333 12H14.6667C15.4028 12 16 11.4241 16 10.7143V1.28571C16 0.575893 15.4028 0 14.6667 0ZM4.88889 2.57143C5.86944 2.57143 6.66667 3.34018 6.66667 4.28571C6.66667 5.23125 5.86944 6 4.88889 6C3.90833 6 3.11111 5.23125 3.11111 4.28571C3.11111 3.34018 3.90833 2.57143 4.88889 2.57143ZM8 8.91429C8 9.19821 7.72222 9.42857 7.37778 9.42857H2.4C2.05556 9.42857 1.77778 9.19821 1.77778 8.91429V8.4C1.77778 7.54821 2.61389 6.85714 3.64444 6.85714H3.78333C4.125 6.99375 4.49722 7.07143 4.88889 7.07143C5.28056 7.07143 5.65556 6.99375 5.99444 6.85714H6.13333C7.16389 6.85714 8 7.54821 8 8.4V8.91429ZM14.2222 7.5C14.2222 7.61786 14.1222 7.71429 14 7.71429H10C9.87778 7.71429 9.77778 7.61786 9.77778 7.5V7.07143C9.77778 6.95357 9.87778 6.85714 10 6.85714H14C14.1222 6.85714 14.2222 6.95357 14.2222 7.07143V7.5ZM14.2222 5.78571C14.2222 5.90357 14.1222 6 14 6H10C9.87778 6 9.77778 5.90357 9.77778 5.78571V5.35714C9.77778 5.23929 9.87778 5.14286 10 5.14286H14C14.1222 5.14286 14.2222 5.23929 14.2222 5.35714V5.78571ZM14.2222 4.07143C14.2222 4.18929 14.1222 4.28571 14 4.28571H10C9.87778 4.28571 9.77778 4.18929 9.77778 4.07143V3.64286C9.77778 3.525 9.87778 3.42857 10 3.42857H14C14.1222 3.42857 14.2222 3.525 14.2222 3.64286V4.07143Z" fill="white"/>
</svg>
