<svg width="12" height="12" viewBox="0 0 12 12" fill="none" xmlns="http://www.w3.org/2000/svg">
<path d="M11.8368 10.3748L9.49987 8.03836C9.39441 7.93289 9.25144 7.8743 9.10144 7.8743H8.71941C9.36628 7.04695 9.75065 6.00656 9.75065 4.87453C9.75065 2.1818 7.5684 0 4.87544 0C2.18249 0 0 2.1818 0 4.87453C0 7.56727 2.18225 9.74906 4.87544 9.74906C6.00747 9.74906 7.04832 9.36469 7.87566 8.71781V9.09984C7.87566 9.24984 7.93426 9.39281 8.03973 9.49828L10.3767 11.8348C10.597 12.0551 10.9532 12.0551 11.1712 11.8348L11.8345 11.1715C12.0548 10.9512 12.0548 10.5952 11.8368 10.3748V10.3748ZM4.87544 8.24906C3.01123 8.24906 1.50046 6.74109 1.50046 4.87453C1.50046 3.01055 3.00866 1.5 4.87544 1.5C6.73965 1.5 8.25043 3.00797 8.25043 4.87453C8.25043 6.73852 6.74223 8.24906 4.87544 8.24906ZM5.51083 4.67391L4.45591 4.3575C4.33498 4.32117 4.25037 4.19859 4.25037 4.05914C4.25037 3.88875 4.37459 3.75 4.52693 3.75H5.18576C5.29263 3.75 5.39575 3.78023 5.48622 3.83719C5.56216 3.88477 5.65872 3.88195 5.72364 3.82008L5.99903 3.55734C6.08177 3.47836 6.07708 3.34148 5.98567 3.27281C5.77239 3.11273 5.51505 3.02039 5.25044 3.0068V2.625C5.25044 2.52141 5.16654 2.4375 5.06294 2.4375H4.68795C4.58435 2.4375 4.50045 2.52141 4.50045 2.625V3.00281C3.94662 3.01758 3.50014 3.48445 3.50014 4.05914C3.50014 4.52719 3.80459 4.94531 4.24029 5.07609L5.29521 5.3925C5.41614 5.42883 5.50075 5.55141 5.50075 5.69086C5.50075 5.86125 5.37654 6 5.22419 6H4.5656C4.45873 6 4.3556 5.96977 4.26513 5.91281C4.1892 5.86523 4.09264 5.86805 4.02771 5.92992L3.75233 6.19266C3.66959 6.27164 3.67428 6.40852 3.76568 6.47719C3.97896 6.63727 4.23631 6.72961 4.50091 6.7432V7.125C4.50091 7.22859 4.58482 7.3125 4.68841 7.3125H5.06341C5.16701 7.3125 5.25091 7.22859 5.25091 7.125V6.74719C5.80474 6.73242 6.25122 6.26578 6.25122 5.69086C6.25122 5.22281 5.94677 4.80469 5.51083 4.67391V4.67391Z" fill="white"/>
</svg>
