<svg width="12" height="14" viewBox="0 0 12 14" fill="none" xmlns="http://www.w3.org/2000/svg">
<path d="M6 3.81818C6.74 3.81818 7.33333 3.24545 7.33333 2.54545C7.33333 2.30364 7.26667 2.08091 7.14 1.89L6 0L4.86 1.89C4.73333 2.08091 4.66667 2.30364 4.66667 2.54545C4.66667 3.24545 5.26667 3.81818 6 3.81818ZM9.06667 10.1755L8.35333 9.49454L7.63333 10.1755C6.76667 11.0027 5.24667 11.0091 4.37333 10.1755L3.66 9.49454L2.93333 10.1755C2.5 10.5891 1.92 10.8182 1.30667 10.8182C0.82 10.8182 0.373333 10.6718 0 10.43V13.3636C0 13.7136 0.3 14 0.666667 14H11.3333C11.7 14 12 13.7136 12 13.3636V10.43C11.6267 10.6718 11.18 10.8182 10.6933 10.8182C10.08 10.8182 9.5 10.5891 9.06667 10.1755ZM10 5.72727H6.66667V4.45455H5.33333V5.72727H2C0.893333 5.72727 0 6.58 0 7.63636V8.61636C0 9.30364 0.586667 9.86364 1.30667 9.86364C1.65333 9.86364 1.98667 9.73636 2.22667 9.50091L3.65333 8.14545L5.07333 9.50091C5.56667 9.97182 6.42667 9.97182 6.92 9.50091L8.34667 8.14545L9.76667 9.50091C10.0133 9.73636 10.34 9.86364 10.6867 9.86364C11.4067 9.86364 11.9933 9.30364 11.9933 8.61636V7.63636C12 6.58 11.1067 5.72727 10 5.72727Z" fill="#343434"/>
</svg>
