<svg width="29" height="29" viewBox="0 0 29 29" fill="none" xmlns="http://www.w3.org/2000/svg">
<path d="M5.10409 2.45535L14.5001 11.8513L23.8574 2.49402C24.0214 2.31947 24.219 2.17984 24.4382 2.0835C24.6575 1.98715 24.8939 1.93608 25.1334 1.93335C25.6462 1.93335 26.1379 2.13704 26.5005 2.49961C26.8631 2.86218 27.0668 3.35393 27.0668 3.86668C27.0713 4.10371 27.0273 4.33916 26.9375 4.55859C26.8478 4.77801 26.7141 4.97677 26.5448 5.14268L17.0908 14.5L26.5448 23.954C26.8634 24.2657 27.0502 24.6879 27.0668 25.1333C27.0668 25.6461 26.8631 26.1379 26.5005 26.5004C26.1379 26.863 25.6462 27.0667 25.1334 27.0667C24.887 27.0769 24.6412 27.0358 24.4115 26.9459C24.1819 26.8561 23.9734 26.7194 23.7994 26.5447L14.5001 17.1487L5.12342 26.5253C4.96006 26.6941 4.76491 26.8288 4.54922 26.9217C4.33354 27.0146 4.10158 27.0639 3.86675 27.0667C3.354 27.0667 2.86225 26.863 2.49968 26.5004C2.13711 26.1379 1.93342 25.6461 1.93342 25.1333C1.92891 24.8963 1.97289 24.6609 2.06265 24.4414C2.15242 24.222 2.28607 24.0233 2.45542 23.8573L11.9094 14.5L2.45542 5.04602C2.13678 4.73428 1.94993 4.31215 1.93342 3.86668C1.93342 3.35393 2.13711 2.86218 2.49968 2.49961C2.86225 2.13704 3.354 1.93335 3.86675 1.93335C4.33075 1.93915 4.77542 2.12668 5.10409 2.45535Z" fill="#F4F4F4"/>
</svg>
