<svg width="13" height="12" viewBox="0 0 13 12" fill="none" xmlns="http://www.w3.org/2000/svg">
<path d="M3.79166 4.92857V7.07143C3.79166 7.42647 3.51884 7.71429 3.18228 7.71429H0.609375C0.272822 7.71429 0 7.42647 0 7.07143V4.92857C0 4.57353 0.272822 4.28571 0.609375 4.28571H3.18228C3.51884 4.28571 3.79166 4.57353 3.79166 4.92857ZM0 9.21429V11.3571C0 11.7122 0.272822 12 0.609375 12H3.18228C3.51884 12 3.79166 11.7122 3.79166 11.3571V9.21429C3.79166 8.85924 3.51884 8.57143 3.18228 8.57143H0.609375C0.272822 8.57143 0 8.85924 0 9.21429ZM3.18228 0H0.609375C0.272822 0 0 0.287812 0 0.642857V2.78571C0 3.14076 0.272822 3.42857 0.609375 3.42857H3.18228C3.51884 3.42857 3.79166 3.14076 3.79166 2.78571V0.642857C3.79166 0.287812 3.51884 0 3.18228 0ZM5.21353 12H12.3906C12.7272 12 13 11.7122 13 11.3571V9.21429C13 8.85924 12.7272 8.57143 12.3906 8.57143H5.21353C4.87698 8.57143 4.60416 8.85924 4.60416 9.21429V11.3571C4.60416 11.7122 4.87698 12 5.21353 12ZM4.60416 0.642857V2.78571C4.60416 3.14076 4.87698 3.42857 5.21353 3.42857H12.3906C12.7272 3.42857 13 3.14076 13 2.78571V0.642857C13 0.287812 12.7272 0 12.3906 0H5.21353C4.87698 0 4.60416 0.287812 4.60416 0.642857ZM5.21353 7.71429H12.3906C12.7272 7.71429 13 7.42647 13 7.07143V4.92857C13 4.57353 12.7272 4.28571 12.3906 4.28571H5.21353C4.87698 4.28571 4.60416 4.57353 4.60416 4.92857V7.07143C4.60416 7.42647 4.87698 7.71429 5.21353 7.71429Z" fill="white"/>
</svg>
