<svg width="31" height="24" viewBox="0 0 31 24" fill="none" xmlns="http://www.w3.org/2000/svg">
<path d="M25.575 21H5.425C4.99875 21 4.65 21.3375 4.65 21.75V23.25C4.65 23.6625 4.99875 24 5.425 24H25.575C26.0013 24 26.35 23.6625 26.35 23.25V21.75C26.35 21.3375 26.0013 21 25.575 21ZM28.675 6C27.3914 6 26.35 7.00781 26.35 8.25C26.35 8.58281 26.4275 8.89219 26.5631 9.17813L23.0562 11.2125C22.3103 11.6438 21.3464 11.4 20.9153 10.6688L16.9677 3.98438C17.4859 3.57188 17.825 2.95312 17.825 2.25C17.825 1.00781 16.7836 0 15.5 0C14.2164 0 13.175 1.00781 13.175 2.25C13.175 2.95312 13.5141 3.57188 14.0323 3.98438L10.0847 10.6688C9.65359 11.4 8.68484 11.6438 7.94375 11.2125L4.44172 9.17813C4.5725 8.89688 4.65484 8.58281 4.65484 8.25C4.65484 7.00781 3.61344 6 2.32984 6C1.04625 6 0 7.00781 0 8.25C0 9.49219 1.04141 10.5 2.325 10.5C2.45094 10.5 2.57687 10.4813 2.69797 10.4625L6.2 19.5H24.8L28.302 10.4625C28.4231 10.4813 28.5491 10.5 28.675 10.5C29.9586 10.5 31 9.49219 31 8.25C31 7.00781 29.9586 6 28.675 6Z" fill="#FFB878"/>
</svg>
